<svg xmlns="http://www.w3.org/2000/svg" xmlns:xlink="http://www.w3.org/1999/xlink" width="236.253" height="236.253" viewBox="0 0 236.253 236.253"><defs><path id="a" d="M117.802 0a118.72 118.72 0 0 0-17.25 1.306c-24.15 3.614-54.853 18.84-99.41-.074 18.95 44.54 3.75 75.255.15 99.41-.85 5.723-1.282 11.5-1.292 17.273v.425c.054 30.175 11.598 60.332 34.63 83.346 23.058 23.04 53.277 34.562 83.486 34.567h.02c30.247 0 60.483-11.545 83.55-34.63 22.99-23.01 34.515-53.137 34.567-83.283v-.44c-.06-30.17-11.604-60.32-34.63-83.33C178.643 11.61 148.563.09 118.457 0h-.658z"/></defs><clipPath id="b"><use xlink:href="#a" overflow="visible"/></clipPath><linearGradient id="c" gradientUnits="userSpaceOnUse" x1="-580.224" y1="282.189" x2="-579.224" y2="282.189" gradientTransform="rotate(43.148 19171.389 251448.558) scale(287.428)"><stop offset="0" stop-color="#C60066"/><stop offset=".913" stop-color="#FF631C"/><stop offset="1" stop-color="#FFBA1C"/></linearGradient><path clip-path="url(#b)" fill="url(#c)" d="M110.494-117.88l243.64 228.374-228.375 243.64-243.64-228.375"/><defs><path id="d" d="M0 0h236.253v236.253H0z"/></defs><clipPath id="e"><use xlink:href="#d" overflow="visible"/></clipPath><path clip-path="url(#e)" fill="#FFF" d="M150.29 127.186a8.223 8.223 0 0 0 7.173 2.364l.15-.02a8.212 8.212 0 0 0 4.334-2.23c3.248-3.19 3.293-8.41.105-11.66L104.468 57a8.231 8.231 0 0 0-7.216-2.363l-.057.01a8.205 8.205 0 0 0-4.38 2.24c-3.25 3.193-3.298 8.412-.11 11.66l57.585 58.642v-.01zM66.838 77.492l24.8 25.256a8.241 8.241 0 0 0 11.66.106c3.243-3.19 3.294-8.408.106-11.654l-24.8-25.26a8.241 8.241 0 0 0-7.248-2.352 8.18 8.18 0 0 0-4.408 2.25 8.238 8.238 0 0 0-.11 11.654m35.543 71.485a8.236 8.236 0 0 0 7.25 2.356h.01a8.23 8.23 0 0 0 4.41-2.246c3.25-3.19 3.3-8.41.11-11.658L69.71 92.18a8.24 8.24 0 0 0-7.248-2.353 8.199 8.199 0 0 0-4.41 2.248 8.227 8.227 0 0 0-2.367 7.18l.02.126a8.267 8.267 0 0 0 2.24 4.36l44.435 45.25v-.01zm-31 3.726a8.244 8.244 0 0 0 7.15 2.366l.19-.04a8.236 8.236 0 0 0 4.32-2.23 8.207 8.207 0 0 0 2.36-7.21l-.01-.09a8.26 8.26 0 0 0-2.24-4.36L65.71 123.4a8.243 8.243 0 0 0-11.66-.102 8.236 8.236 0 0 0-.1 11.656L71.37 152.7l.005.003z"/><defs><path id="f" d="M0 0h236.253v236.253H0z"/></defs><clipPath id="g"><use xlink:href="#f" overflow="visible"/></clipPath><path clip-path="url(#g)" fill="#FFF" d="M192.935 76.99a8.157 8.157 0 0 0-1.398-1.92l-14.623-14.893a8.233 8.233 0 0 0-7.162-2.367l-.172.03a8.215 8.215 0 0 0-4.33 2.23c-3.25 3.192-3.3 8.41-.11 11.657l5.63 5.738s.7.717 1.84 2.06c.27.17.54.365.77.607l27.156 27.652a4.12 4.12 0 0 1-2.258 6.95 4.123 4.123 0 0 1-3.626-1.173l-7.38-7.51-.16-.16a8.255 8.255 0 0 0-7.25-2.35 8.209 8.209 0 0 0-4.41 2.25 8.245 8.245 0 0 0-.11 11.66l14.04 14.3-.002.02 11.873 12.09a4.124 4.124 0 0 1-.054 5.83c-.63.61-1.4.99-2.21 1.13-1.29.22-2.65-.18-3.63-1.18l-8.56-8.71a8.247 8.247 0 0 0-7.02-2.13 8.233 8.233 0 0 0-4.4 2.24 8.245 8.245 0 0 0-.11 11.66l14.22 14.48c1.59 1.63 1.57 4.24-.06 5.83-.63.62-1.4.99-2.21 1.13a4.16 4.16 0 0 1-3.63-1.17l-19.5-19.86a8.23 8.23 0 0 0-7.24-2.35 8.192 8.192 0 0 0-4.41 2.24 8.245 8.245 0 0 0-.11 11.66l9.66 9.84-.01.01 9.84 10.02a4.123 4.123 0 0 1-.06 5.83 4.126 4.126 0 0 1-5.83-.04l-27.91-28.42a8.247 8.247 0 0 0-7.02-2.13 8.113 8.113 0 0 0-4.4 2.25 8.245 8.245 0 0 0-.11 11.66l6.5 6.62-.02-.01 15.32 15.59a4.123 4.123 0 0 1-.06 5.83c-.63.62-1.4.99-2.2 1.13a4.09 4.09 0 0 1-3.62-1.18l-31.87-32.46c-.12-.12-.2-.25-.3-.38-.39-.36-.78-.74-1.15-1.12l-.87-.88-6.98-7.11a8.25 8.25 0 0 0-7.25-2.35 8.14 8.14 0 0 0-4.41 2.25c-3.25 3.19-3.29 8.41-.11 11.66l21 21.39-.01.01 1.65 1.69c1.6 1.62 1.57 4.23-.05 5.83-.62.61-1.39.99-2.2 1.12-1.28.21-2.64-.18-3.62-1.18L90.42 183.9l-.1-.12-22.57-22.99-.027.024L62 154.97a8.214 8.214 0 0 0-7.24-2.36 8.209 8.209 0 0 0-4.41 2.25 8.251 8.251 0 0 0-2.38 7.117l.042.264a8.227 8.227 0 0 0 2.228 4.28l24.8 25.26c.228.23.46.44.71.64 18.167 17.19 44.67 25.93 70.52 21.67l.28-.04c15.377-2.6 30.51-9.8 43.52-22.57 35.017-34.38 29.505-85.38 2.875-114.45"/><defs><path id="h" d="M0 0h236.253v236.253H0z"/></defs><clipPath id="i"><use xlink:href="#h" overflow="visible"/></clipPath><path clip-path="url(#i)" fill="#FFF" d="M141.535 135.057a8.244 8.244 0 0 0-4.412 2.247c-3.25 3.188-3.297 8.406-.104 11.658a8.217 8.217 0 0 0 7.24 2.352 8.245 8.245 0 0 0 4.41-2.247 8.254 8.254 0 0 0 .1-11.66 8.24 8.24 0 0 0-7.25-2.35m-82.39-70.19a8.209 8.209 0 0 0 4.41-2.25 8.26 8.26 0 0 0 2.37-7.144l-.04-.204a8.171 8.171 0 0 0-2.23-4.31c-1.96-2-4.69-2.79-7.25-2.36a8.209 8.209 0 0 0-4.41 2.25 8.256 8.256 0 0 0-2.38 7.14l.03.2a8.109 8.109 0 0 0 2.23 4.3 8.221 8.221 0 0 0 7.24 2.35m99.16 32.96l.04.25a8.23 8.23 0 0 0 2.23 4.28 8.23 8.23 0 0 0 7.15 2.37l.19-.03a8.254 8.254 0 0 0 4.42-13.9 8.25 8.25 0 0 0-7.25-2.35 8.237 8.237 0 0 0-4.42 2.25c-1.97 1.92-2.76 4.59-2.38 7.12m-47.97 5.45a8.237 8.237 0 0 0-4.42 2.25 8.211 8.211 0 0 0-2.37 7.14l.04.22a8.145 8.145 0 0 0 2.23 4.3l9.37 9.54a8.264 8.264 0 0 0 7.21 2.36l.08-.01a8.27 8.27 0 0 0 4.37-2.25c3.25-3.19 3.29-8.41.11-11.66l-9.37-9.55c-1.96-2-4.68-2.78-7.24-2.36m20.27-33.69l.05.32a8.2 8.2 0 0 0 2.22 4.25l12.27 12.5a8.264 8.264 0 0 0 7.21 2.36l.07-.01a8.2 8.2 0 0 0 4.37-2.25 8.233 8.233 0 0 0 .1-11.65L144.63 62.6a8.237 8.237 0 0 0-7.17-2.367l-.154.026a8.215 8.215 0 0 0-4.33 2.23 8.217 8.217 0 0 0-2.38 7.08m-11.753-9.71a8.235 8.235 0 0 0 7.242 2.35 8.175 8.175 0 0 0 4.41-2.24c3.25-3.19 3.3-8.41.108-11.65l-3.12-3.17a8.234 8.234 0 0 0-7.244-2.35 8.18 8.18 0 0 0-4.4 2.25 8.22 8.22 0 0 0-2.37 7.12l.05.26a8.194 8.194 0 0 0 2.23 4.28l3.12 3.18v-.02z"/></svg>