<svg xmlns="http://www.w3.org/2000/svg" width="24.859" height="24" viewBox="0 0 24.859 24"><path fill="#FFF" d="M.183 3.016c0-.788.276-1.438.828-1.95s1.27-.77 2.15-.77c.87 0 1.57.253 2.11.758.55.52.828 1.198.828 2.033 0 .757-.268 1.387-.804 1.893-.55.52-1.276.778-2.174.778h-.03c-.866 0-1.567-.26-2.103-.778C.45 4.458.183 3.804.183 3.016zM.49 23.703V7.91h5.25v15.793H.49zm8.158 0h5.248v-8.818c0-.552.063-.978.19-1.277.22-.535.555-.988 1.004-1.36.45-.37 1.013-.553 1.69-.553 1.765 0 2.648 1.19 2.648 3.57v8.44h5.248V14.65c0-2.334-.552-4.104-1.654-5.31-1.104-1.206-2.562-1.81-4.375-1.81-2.032 0-3.617.876-4.752 2.625v.047h-.023l.023-.047V7.91H8.648c.03.504.047 2.073.047 4.706 0 2.63-.017 6.327-.047 11.087z"/></svg>